<?xml version="1.0" standalone="no"?>
<!DOCTYPE svg PUBLIC "-//W3C//DTD SVG 20010904//EN"
 "http://www.w3.org/TR/2001/REC-SVG-20010904/DTD/svg10.dtd">
<svg version="1.0" xmlns="http://www.w3.org/2000/svg"
 width="1280.000000pt" height="938.000000pt" viewBox="0 0 1280.000000 938.000000"
 preserveAspectRatio="xMidYMid meet">
<metadata>
Created by potrace 1.15, written by Peter Selinger 2001-2017
</metadata>
<g transform="translate(0.000000,938.000000) scale(0.100000,-0.100000)"
fill="rgb(101, 168, 129)" stroke="none">
<path d="M1948 9364 c-118 -21 -256 -78 -358 -147 -60 -41 -164 -141 -207
-199 l-34 -47 -92 48 c-263 140 -566 203 -863 180 -138 -10 -341 -51 -360 -71
-12 -13 -39 -216 -30 -225 2 -3 28 2 58 10 137 40 232 51 423 52 143 0 212 -5
280 -18 204 -40 493 -153 480 -186 -52 -131 -64 -352 -27 -503 27 -108 61
-193 112 -279 l40 -66 93 -21 c96 -21 123 -17 95 15 -53 60 -116 199 -147 327
-33 131 -24 426 12 426 27 0 203 -163 287 -265 229 -279 349 -594 367 -960 5
-106 3 -146 -12 -210 -58 -261 -199 -547 -458 -930 -394 -580 -439 -653 -541
-866 -101 -209 -139 -352 -186 -689 -60 -440 42 -776 318 -1042 130 -126 252
-202 407 -255 202 -69 469 -70 670 -4 33 11 61 19 62 17 2 -1 10 -72 18 -157
77 -776 252 -1432 530 -1989 242 -485 655 -986 1009 -1223 102 -69 166 -90
246 -83 265 22 746 267 1155 587 676 529 1300 1490 1646 2534 34 105 64 191
65 193 1 2 69 -63 151 -145 159 -160 265 -253 435 -381 323 -242 688 -424 858
-426 57 -1 76 4 152 41 356 171 836 659 1138 1157 263 432 512 1101 626 1676
9 47 20 92 25 100 6 12 36 -13 131 -110 351 -357 518 -800 488 -1295 -16 -244
-69 -443 -180 -671 -104 -211 -235 -402 -550 -799 -388 -489 -533 -729 -626
-1039 -44 -147 -58 -242 -58 -401 0 -216 39 -375 131 -538 137 -243 405 -419
693 -456 41 -6 107 -15 145 -22 90 -15 247 -6 348 20 88 23 222 83 294 132 63
43 166 142 210 201 l34 47 92 -48 c263 -140 566 -203 863 -180 138 10 341 51
360 71 12 13 39 216 30 225 -2 3 -28 -2 -58 -10 -137 -40 -232 -51 -423 -52
-143 0 -212 5 -280 18 -204 40 -493 153 -480 186 52 131 64 352 27 503 -27
108 -61 193 -112 279 l-40 66 -93 21 c-96 21 -123 17 -95 -15 53 -60 116 -199
147 -327 33 -131 24 -426 -12 -426 -27 0 -203 163 -287 265 -229 279 -349 594
-367 960 -5 106 -3 146 12 210 58 261 199 547 458 930 394 580 439 653 541
866 101 209 139 352 186 689 60 440 -42 776 -318 1042 -176 170 -366 266 -591
298 -125 19 -313 8 -435 -24 -54 -15 -100 -25 -101 -24 -2 2 1 44 6 93 28 265
27 824 -1 1130 -86 927 -533 1630 -1265 1985 -448 218 -982 288 -1553 205
-1007 -148 -1717 -752 -1947 -1657 -57 -222 -93 -557 -80 -747 l7 -104 -24 7
c-336 98 -603 138 -923 139 -229 0 -369 -15 -570 -59 -796 -178 -1396 -773
-1634 -1623 -79 -281 -135 -662 -157 -1076 l-7 -129 -86 89 c-219 229 -378
546 -432 865 -46 266 -20 591 68 844 97 284 248 523 643 1021 388 489 533 729
626 1039 44 147 58 242 58 401 0 216 -39 375 -131 538 -138 244 -401 418 -693
456 -47 6 -107 16 -135 21 -72 13 -208 10 -297 -6z m443 -55 c260 -86 463
-284 559 -548 50 -137 64 -220 63 -386 -1 -240 -48 -425 -173 -680 -108 -220
-230 -397 -537 -782 -356 -445 -481 -632 -590 -883 -232 -533 -195 -1149 99
-1639 109 -183 264 -360 430 -493 l88 -70 0 -73 0 -73 -77 -21 c-484 -130
-972 83 -1217 530 -71 130 -113 285 -123 455 -5 85 -2 117 17 195 63 261 188
516 424 864 283 418 410 611 466 710 165 288 247 530 281 830 6 55 15 132 19
170 28 220 -13 532 -95 741 -108 271 -281 512 -489 681 l-40 32 48 71 c72 105
205 226 312 282 190 99 395 133 535 87z m8564 -3560 c445 -52 816 -395 911
-842 8 -40 18 -118 21 -173 5 -85 2 -117 -17 -195 -63 -261 -188 -516 -424
-864 -283 -418 -410 -611 -466 -710 -165 -288 -247 -530 -281 -830 -6 -55 -15
-131 -19 -170 -28 -220 13 -532 95 -741 108 -271 281 -512 489 -681 l40 -32
-48 -71 c-152 -222 -411 -370 -677 -387 -82 -5 -105 -3 -164 16 -264 86 -468
284 -565 550 -50 137 -64 220 -63 386 1 240 48 425 173 680 108 220 230 397
537 782 356 445 481 632 590 883 181 414 200 869 56 1303 -63 192 -177 395
-314 563 -77 94 -239 247 -328 309 l-71 50 6 55 c3 30 7 56 8 57 1 1 42 13 91
28 150 42 270 52 420 34z"/>
</g>
</svg>
